<svg xmlns="http://www.w3.org/2000/svg" viewBox="0 0 100 100">
  <defs>
    <linearGradient id="shield-gradient" x1="0%" y1="0%" x2="100%" y2="100%">
      <stop offset="0%" style="stop-color:#4a7c59;stop-opacity:1" />
      <stop offset="100%" style="stop-color:#2d5a3d;stop-opacity:1" />
    </linearGradient>
  </defs>
  <!-- Shield shape -->
  <path d="M50 5 L90 20 L90 45 C90 70 70 90 50 95 C30 90 10 70 10 45 L10 20 Z" 
        fill="url(#shield-gradient)" 
        stroke="#1a3d26" 
        stroke-width="2"/>
  <!-- Hands clasping (solidarity symbol) -->
  <g fill="#ffffff" transform="translate(25, 30) scale(0.5)">
    <!-- Left hand -->
    <path d="M20 50 C15 45 10 40 10 30 C10 25 15 20 25 25 L35 35 C40 38 45 35 45 30 L45 20 C45 15 50 10 55 15 L55 40 C55 50 45 60 35 60 L20 50 Z"/>
    <!-- Right hand -->
    <path d="M80 50 C85 45 90 40 90 30 C90 25 85 20 75 25 L65 35 C60 38 55 35 55 30 L55 20 C55 15 50 10 45 15 L45 40 C45 50 55 60 65 60 L80 50 Z"/>
  </g>
  <!-- Small circle (unity) -->
  <circle cx="50" cy="55" r="8" fill="#ffffff" opacity="0.9"/>
</svg>

